# xmcd CD database file
#
# Track frame offsets:
#	150
#	15675
#	31055
#	46527
#	64777
#	78867
#	91475
#	103490
#	120945
#	135487
#	150832
#	166505
#	181697
#
# Disc length: 2608 seconds
#
# Revision: 1
# Processed by: cddbd v1.5.2PL0 Copyright (c) Steve Scherf et al.
# Submitted via: CDex 1.70beta2
#
DISCID=840a2e0d
DTITLE=Hank Stone - In A Texas Honky Tonk
DYEAR=1999
DGENRE=Country
TTITLE0=Your Jealousy
TTITLE1=Are You Sure
TTITLE2=Your Side Of Town
TTITLE3=Touch My Heart
TTITLE4=Alone In San Antone
TTITLE5=In A Texas Honky Tonk
TTITLE6=Cold Brown Bottle
TTITLE7=Unloved Unwanted
TTITLE8=What's Come Over My Baby
TTITLE9=House So Full Of Everything But You
TTITLE10=I Wish I Felt This Way At Home
TTITLE11=An Eye For An Eye  (With Johnny Bush)
TTITLE12=Clinging To A Saving Hand
EXTD=YEAR: 1999
EXTT0=
EXTT1=
EXTT2=
EXTT3=
EXTT4=
EXTT5=
EXTT6=
EXTT7=
EXTT8=
EXTT9=
EXTT10=
EXTT11=
EXTT12=
PLAYORDER=
